<svg xmlns="http://www.w3.org/2000/svg" version="1.1" xmlns:xlink="http://www.w3.org/1999/xlink" xmlns:svgjs="http://svgjs.dev/svgjs" width="1000" height="1000" viewBox="0 0 1000 1000"><rect width="1000" height="1000" fill="#ffffff"></rect><g transform="matrix(0.7,0,0,0.7,149.57575757575756,416.06066299011604)"><svg viewBox="0 0 396 95" data-background-color="#ffffff" preserveAspectRatio="xMidYMid meet" height="239" width="1000" xmlns="http://www.w3.org/2000/svg" xmlns:xlink="http://www.w3.org/1999/xlink"><g id="tight-bounds" transform="matrix(1,0,0,1,0.2400000000000091,0.1642977641301968)"><svg viewBox="0 0 395.52 94.67140447173962" height="94.67140447173962" width="395.52"><g><svg viewBox="0 0 546.2750249622309 130.756027106111" height="94.67140447173962" width="395.52"><g transform="matrix(1,0,0,1,150.75502496223095,18.0712020096)"><svg viewBox="0 0 395.52 94.61362308691099" height="94.61362308691099" width="395.52"><g id="textblocktransform"><svg viewBox="0 0 395.52 94.61362308691099" height="94.61362308691099" width="395.52" id="textblock"><g><svg viewBox="0 0 395.52 51.03006731488407" height="51.03006731488407" width="395.52"><g transform="matrix(1,0,0,1,0,0)"><svg width="395.52" viewBox="2 -36.08 391.65 50.53" height="51.03006731488407" data-palette-color="#fbeaab"><path d="M22.46 0.34L22.46 0.34 18.16 0.34Q16.55-1.17 14.75-3.13 12.94-5.08 11.79-6.45 10.64-7.81 8.62-10.33 6.59-12.84 5.76-13.87L5.76-13.87 6.4-0.68Q5.96 0.78 4.69 0.78L4.69 0.78Q3.81 0.78 3 0.07 2.2-0.63 2-1.66L2-1.66Q2.15-5.57 2.25-17.87 2.34-30.18 2.69-36.04L2.69-36.04 4.88-35.55Q5.03-33.11 5.22-27.08 5.42-21.04 5.52-19.04L5.52-19.04Q6.35-20.07 8.62-22.83 10.89-25.59 11.74-26.59 12.6-27.59 14.23-29.49 15.87-31.4 17.24-32.81 18.6-34.23 20.17-35.69L20.17-35.69 21.63-33.3Q19.87-30.37 8.01-16.7L8.01-16.7Q9.72-14.89 15.06-8.3 20.41-1.71 22.46 0.34ZM25.49-25.1L25.49-25.1 27.73-24.61Q28.12-20.61 28.42-12.04 28.71-3.47 28.81-1.42L28.81-1.42Q28.37 0.1 27.1 0.1L27.1 0.1Q26.22 0.1 25.41-0.61 24.61-1.32 24.41-2.34L24.41-2.34Q24.51-4.35 24.8-12.77 25.1-21.19 25.49-25.1ZM26.17-33.84L26.17-33.84Q27.49-33.84 28.37-32.69 29.25-31.54 29.25-30.08L29.25-30.08Q29.25-29 28.73-28.34 28.22-27.69 27.34-27.69L27.34-27.69Q25.97-27.69 25.19-28.81 24.41-29.93 24.41-31.45L24.41-31.45Q24.41-32.52 24.88-33.18 25.34-33.84 26.17-33.84ZM36.57-19.53L36.57-19.53 36.76-0.2Q36.03 0.2 35 0.2L35 0.2Q34.22 0.2 33.25-0.05L33.25-0.05Q33.39-3.13 33.44-12.16 33.49-21.19 33.83-25.54L33.83-25.54 36.03-25.05 36.18-22.31Q38.76-25.05 42.13-25.05L42.13-25.05Q43.84-25.05 44.87-24.8 45.89-24.56 46.85-23.61 47.8-22.66 48.29-21.09 48.77-19.53 49.16-16.63 49.56-13.72 49.73-9.84 49.9-5.96 49.95-0.05L49.95-0.05Q49.65 0.05 48.82 0.05L48.82 0.05Q47.07 0.05 46.09-0.39L46.09-0.39Q45.89-1.17 45.89-2.98L45.89-2.98Q45.89-3.91 45.97-6.47 46.04-9.03 46.04-10.45L46.04-10.45Q46.04-12.79 45.87-14.55 45.7-16.31 45.23-18.02 44.77-19.73 43.82-20.65 42.87-21.58 41.45-21.58L41.45-21.58Q39.84-21.58 38.94-21.34 38.03-21.09 37.67-20.75 37.3-20.41 36.57-19.53ZM57.32-33.2L56.19-25.73 54-26.27 52.87-34.13Q52.97-35.11 53.46-35.6 53.95-36.08 54.58-36.08L54.58-36.08Q55.56-36.08 56.41-35.25 57.27-34.42 57.32-33.2L57.32-33.2ZM75.33-23.54L75.33-23.54 74.84-21.58Q70.11-23.54 67.47-23.54L67.47-23.54Q65.13-23.54 64.17-22.83 63.22-22.12 63.22-19.82L63.22-19.82Q63.22-17.97 64.57-16.75 65.91-15.53 67.81-14.82 69.72-14.11 71.65-13.31 73.57-12.5 74.92-10.94 76.26-9.38 76.26-7.08L76.26-7.08Q76.26-3.96 73.96-1.61 71.67 0.73 68.01 0.78L68.01 0.78Q65.32 0.78 62.98-0.34 60.63-1.46 59.27-3.17L59.27-3.17 60.68-4.64Q61.27-4.39 62.42-3.86 63.56-3.32 64.05-3.15 64.54-2.98 65.49-2.78 66.45-2.59 67.52-2.59L67.52-2.59Q69.81-2.59 71.28-3.61 72.74-4.64 72.74-6.49L72.74-6.49Q72.74-7.71 72.06-8.57 71.38-9.42 70.25-9.96 69.13-10.5 67.79-10.99 66.45-11.47 65.1-12.08 63.76-12.7 62.64-13.55 61.51-14.4 60.83-15.87 60.15-17.33 60.15-19.34L60.15-19.34Q60.15-22.27 61.73-24.24 63.32-26.22 66.2-26.22L66.2-26.22Q67.32-26.22 68.74-25.88 70.16-25.54 70.99-25.24 71.82-24.95 73.45-24.29 75.09-23.63 75.33-23.54ZM97.64-0.44L97.64 0.29 93.2 0Q93.69-5.37 93.78-17.97 93.88-30.57 94.42-35.55L94.42-35.55Q96.08-35.4 103.23-35.3 110.39-35.21 112.58-34.86L112.58-34.86 113.12-32.67Q110.92-32.28 104.33-31.74 97.74-31.2 97.4-31.15L97.4-31.15Q97.45-30.03 97.62-26.56 97.79-23.1 97.84-20.85L97.84-20.85Q99.5-20.65 103.89-20.29 108.29-19.92 109.46-19.82L109.46-19.82 109.95-17.58Q99.64-16.65 97.89-16.6L97.89-16.6 97.89-15.77Q97.89-13.92 97.76-8.08 97.64-2.25 97.64-0.44L97.64-0.44ZM113.26-21.09L113.26-21.09 112.29-23.58Q113.56-24.85 115.51-25.61 117.46-26.37 119.37-26.37L119.37-26.37Q127.62-26.37 127.62-12.11L127.62-12.11Q127.62-10.16 127.4-6.35 127.18-2.54 127.18-0.63L127.18-0.63Q126.79 0.88 125.67 0.88L125.67 0.88Q124.79 0.88 124.05 0 123.32-0.88 123.32-1.95L123.32-1.95Q123.32-2.29 123.37-2.44L123.37-2.44Q120.34 0.49 116.93 0.49L116.93 0.49Q114.34 0.49 112.41-1.39 110.48-3.27 110.48-5.96L110.48-5.96Q110.48-10.5 114.02-14.16 117.56-17.82 122.05-17.82L122.05-17.82Q122.25-17.82 122.44-17.8 122.64-17.77 122.91-17.72 123.18-17.68 123.32-17.68L123.32-17.68Q122.93-23.39 118.78-23.39L118.78-23.39Q116.34-23.39 113.26-21.09ZM123.47-5.81L123.47-5.81Q123.57-9.23 123.57-10.99L123.57-10.99Q123.57-12.45 123.47-15.09L123.47-15.09 123.08-15.09Q119.61-15.04 116.75-12.5 113.9-9.96 113.9-6.35L113.9-6.35Q113.9-4.79 114.85-3.86 115.8-2.93 117.17-2.93L117.17-2.93Q119.32-2.93 123.47-5.81ZM144.85-25.1L144.85-25.1 148.12-24.66Q147.2-20.8 145.19-12.92 143.19-5.03 142.07-0.1L142.07-0.1Q140.17 0.24 138.75 0.24L138.75 0.24Q137.58 0.24 136.55 0.05L136.55 0.05Q135.82-2.49 134.23-7.98 132.65-13.48 131.55-17.53 130.45-21.58 129.57-25.29L129.57-25.29 132.79-25.05 139.14-4.74Q139.92-7.08 140.8-10.01 141.68-12.94 142.22-15.01 142.75-17.09 143.63-20.43 144.51-23.78 144.85-25.1ZM148.32-10.4L148.32-10.4Q148.32-12.35 148.73-14.75 149.15-17.14 149.98-19.78 150.81-22.41 152.47-24.17 154.13-25.93 156.33-25.93L156.33-25.93Q161.01-25.93 163.84-21.7 166.68-17.48 166.68-12.3L166.68-12.3Q166.68-10.11 166.21-7.93 165.75-5.76 164.77-3.66 163.8-1.56 161.96-0.17 160.13 1.22 157.69 1.42L157.69 1.42Q153.2 0.83 150.76-2.42 148.32-5.66 148.32-10.4ZM156.62-23.39L156.62-23.39Q154.91-23.19 153.74-20.26 152.57-17.33 152.22-14.58 151.88-11.82 151.88-9.72L151.88-9.72Q151.88-6.98 153.57-4.66 155.25-2.34 157.35-2.34L157.35-2.34Q158.86-2.34 160.08-3.52 161.31-4.69 162.01-6.42 162.72-8.15 163.09-9.91 163.45-11.67 163.45-13.04L163.45-13.04Q163.45-17.04 161.65-20.02 159.84-23 156.62-23.39ZM186.74-18.6L186.74-18.6 184.59-18.75Q183.57-21.48 181.13-21.48L181.13-21.48Q180.05-21.48 178.86-21 177.66-20.51 176.88-20 176.1-19.48 174.83-18.51L174.83-18.51Q174.83-17.82 174.8-14.06 174.78-10.3 174.85-5.71 174.93-1.12 175.02-0.78L175.02-0.78Q174.58 0.68 173.31 0.68L173.31 0.68Q172.44 0.68 171.63-0.02 170.82-0.73 170.63-1.76L170.63-1.76Q171.56-17.43 172.29-25.44L172.29-25.44 174.49-24.95 174.63-21.68Q178.05-24.51 180.49-24.51L180.49-24.51Q183.18-24.51 185.01-23.29 186.84-22.07 186.84-19.73L186.84-19.73Q186.84-18.99 186.74-18.6ZM189.87-25.1L189.87-25.1 192.11-24.61Q192.5-20.61 192.79-12.04 193.09-3.47 193.19-1.42L193.19-1.42Q192.75 0.1 191.48 0.1L191.48 0.1Q190.6 0.1 189.79-0.61 188.99-1.32 188.79-2.34L188.79-2.34Q188.89-4.35 189.18-12.77 189.47-21.19 189.87-25.1ZM190.55-33.84L190.55-33.84Q191.87-33.84 192.75-32.69 193.62-31.54 193.62-30.08L193.62-30.08Q193.62-29 193.11-28.34 192.6-27.69 191.72-27.69L191.72-27.69Q190.35-27.69 189.57-28.81 188.79-29.93 188.79-31.45L188.79-31.45Q188.79-32.52 189.25-33.18 189.72-33.84 190.55-33.84ZM210.96-23.63L210.96-23.63 211.49-21.44Q210.18-21.34 207.44-20.92 204.71-20.51 203.34-20.41L203.34-20.41Q203.58-18.7 203.63-15.92 203.68-13.13 203.75-11.11 203.83-9.08 204.19-7.06 204.56-5.03 205.71-3.96 206.85-2.88 208.81-2.88L208.81-2.88Q210.27-2.88 212.47-3.56L212.47-3.56Q213.4-1.76 213.84-0.93L213.84-0.93Q209.98 0.44 206.02 0.44L206.02 0.44Q204.56 0.44 203.49-0.44 202.41-1.32 201.83-2.64 201.24-3.96 200.87-5.98 200.51-8.01 200.41-9.81 200.31-11.62 200.31-13.96L200.31-13.96Q200.31-15.23 200.34-17.48 200.36-19.73 200.36-20.56L200.36-20.56Q199.87-20.51 198.07-20.48 196.26-20.46 195.97-20.46L195.97-20.46Q195.62-23.73 195.62-23.83L195.62-23.83Q195.97-23.73 196.75-23.73L196.75-23.73Q197.19-23.73 198.16-23.8 199.14-23.88 199.63-23.88L199.63-23.88Q199.82-23.88 200.14-23.85 200.46-23.83 200.56-23.83L200.56-23.83Q200.75-29.2 201-32.57L201-32.57 203.19-32.03Q203.24-30.86 203.27-29.52 203.29-28.17 203.31-26.54 203.34-24.9 203.34-24.02L203.34-24.02Q204.61-23.93 207.15-23.83 209.69-23.73 210.96-23.63ZM233.32-4.74L233.32-4.74 233.81-2.59Q231.66-1.81 227.43-0.85 223.21 0.1 221.16 0.1L221.16 0.1Q219.06 0.1 217.5-1.29 215.93-2.69 215.15-4.86 214.37-7.03 214.01-9.16 213.64-11.28 213.64-13.33L213.64-13.33Q213.64-25.54 224.67-25.54L224.67-25.54Q227.31-25.54 229.31-23.85 231.32-22.17 231.32-19.48L231.32-19.48Q231.32-18.02 230.51-16.89 229.7-15.77 228.56-15.11 227.41-14.45 225.63-13.92 223.84-13.38 222.48-13.13 221.11-12.89 219.21-12.6 217.3-12.3 216.57-12.16L216.57-12.16Q216.62-10.74 216.74-9.67 216.86-8.59 217.23-7.35 217.59-6.1 218.2-5.3 218.82-4.49 219.89-3.96 220.96-3.42 222.43-3.42L222.43-3.42Q224.19-3.42 226.73-3.74 229.26-4.05 231.24-4.39 233.22-4.74 233.32-4.74ZM216.76-15.19L216.76-15.19Q223.41-17.09 227.65-19.19L227.65-19.19Q227.31-20.8 226.73-21.53 226.14-22.27 224.97-22.27L224.97-22.27Q221.99-22.27 219.57-20.21 217.16-18.16 216.76-15.19ZM250.8-23.54L250.8-23.54 250.31-21.58Q245.57-23.54 242.93-23.54L242.93-23.54Q240.59-23.54 239.64-22.83 238.69-22.12 238.69-19.82L238.69-19.82Q238.69-17.97 240.03-16.75 241.37-15.53 243.28-14.82 245.18-14.11 247.11-13.31 249.04-12.5 250.38-10.94 251.72-9.38 251.72-7.08L251.72-7.08Q251.72-3.96 249.43-1.61 247.13 0.73 243.47 0.78L243.47 0.78Q240.79 0.78 238.44-0.34 236.1-1.46 234.73-3.17L234.73-3.17 236.15-4.64Q236.73-4.39 237.88-3.86 239.03-3.32 239.52-3.15 240-2.98 240.96-2.78 241.91-2.59 242.98-2.59L242.98-2.59Q245.28-2.59 246.74-3.61 248.21-4.64 248.21-6.49L248.21-6.49Q248.21-7.71 247.52-8.57 246.84-9.42 245.72-9.96 244.59-10.5 243.25-10.99 241.91-11.47 240.57-12.08 239.22-12.7 238.1-13.55 236.98-14.4 236.29-15.87 235.61-17.33 235.61-19.34L235.61-19.34Q235.61-22.27 237.2-24.24 238.78-26.22 241.66-26.22L241.66-26.22Q242.79-26.22 244.2-25.88 245.62-25.54 246.45-25.24 247.28-24.95 248.92-24.29 250.55-23.63 250.8-23.54ZM289.36-10.35L284.63-11.23 284.09-13.43Q285.07-13.57 288.68-13.89 292.29-14.21 293.22-14.4L293.22-14.4 293.22 1.12 289.41 1.9Q289.36 1.42 289.36-0.42 289.36-2.25 289.32-2.78L289.32-2.78Q289.32-2.69 288.97-2.22 288.63-1.76 287.9-1.07 287.17-0.39 286.19 0.24 285.21 0.88 283.7 1.32 282.19 1.76 280.53 1.76L280.53 1.76Q268.66 1.76 268.66-16.7L268.66-16.7Q268.66-19.87 269.15-22.88 269.64-25.88 270.81-28.91 271.98-31.93 274.35-33.79 276.72-35.64 279.99-35.64L279.99-35.64Q282.82-35.64 285.85-34.67 288.88-33.69 291.02-32.23L291.02-32.23 289.07-29.98Q285.26-32.81 281.55-32.81L281.55-32.81Q279.11-32.81 277.35-31.64 275.59-30.47 274.69-28.81 273.79-27.15 273.28-24.61 272.76-22.07 272.64-20.21 272.52-18.36 272.52-15.87L272.52-15.87Q272.52-9.91 274.72-6.13 276.91-2.34 280.43-2.34L280.43-2.34Q281.94-2.34 283.38-2.83 284.82-3.32 285.85-4 286.87-4.69 287.7-5.42 288.53-6.15 288.95-6.64 289.36-7.13 289.36-7.23L289.36-7.23 289.36-10.35ZM298.93-21.09L298.93-21.09 297.96-23.58Q299.23-24.85 301.18-25.61 303.13-26.37 305.04-26.37L305.04-26.37Q313.29-26.37 313.29-12.11L313.29-12.11Q313.29-10.16 313.07-6.35 312.85-2.54 312.85-0.63L312.85-0.63Q312.46 0.88 311.33 0.88L311.33 0.88Q310.46 0.88 309.72 0 308.99-0.88 308.99-1.95L308.99-1.95Q308.99-2.29 309.04-2.44L309.04-2.44Q306.01 0.49 302.59 0.49L302.59 0.49Q300.01 0.49 298.08-1.39 296.15-3.27 296.15-5.96L296.15-5.96Q296.15-10.5 299.69-14.16 303.23-17.82 307.72-17.82L307.72-17.82Q307.92-17.82 308.11-17.8 308.31-17.77 308.58-17.72 308.84-17.68 308.99-17.68L308.99-17.68Q308.6-23.39 304.45-23.39L304.45-23.39Q302.01-23.39 298.93-21.09ZM309.14-5.81L309.14-5.81Q309.23-9.23 309.23-10.99L309.23-10.99Q309.23-12.45 309.14-15.09L309.14-15.09 308.75-15.09Q305.28-15.04 302.42-12.5 299.57-9.96 299.57-6.35L299.57-6.35Q299.57-4.79 300.52-3.86 301.47-2.93 302.84-2.93L302.84-2.93Q304.99-2.93 309.14-5.81ZM317.24-2.34L318.31-33.5 320.56-33.01 321.63-1.42Q321.2 0.1 319.93 0.1L319.93 0.1Q319.05 0.1 318.24-0.61 317.44-1.32 317.24-2.34L317.24-2.34ZM325.64-2.34L326.71-33.5 328.96-33.01 330.03-1.42Q329.59 0.1 328.32 0.1L328.32 0.1Q327.44 0.1 326.64-0.61 325.83-1.32 325.64-2.34L325.64-2.34ZM353.71-4.74L353.71-4.74 354.2-2.59Q352.05-1.81 347.83-0.85 343.6 0.1 341.55 0.1L341.55 0.1Q339.45 0.1 337.89-1.29 336.33-2.69 335.55-4.86 334.76-7.03 334.4-9.16 334.03-11.28 334.03-13.33L334.03-13.33Q334.03-25.54 345.07-25.54L345.07-25.54Q347.7-25.54 349.71-23.85 351.71-22.17 351.71-19.48L351.71-19.48Q351.71-18.02 350.9-16.89 350.1-15.77 348.95-15.11 347.8-14.45 346.02-13.92 344.24-13.38 342.87-13.13 341.5-12.89 339.6-12.6 337.69-12.3 336.96-12.16L336.96-12.16Q337.01-10.74 337.13-9.67 337.25-8.59 337.62-7.35 337.99-6.1 338.6-5.3 339.21-4.49 340.28-3.96 341.36-3.42 342.82-3.42L342.82-3.42Q344.58-3.42 347.12-3.74 349.66-4.05 351.63-4.39 353.61-4.74 353.71-4.74ZM337.16-15.19L337.16-15.19Q343.8-17.09 348.05-19.19L348.05-19.19Q347.7-20.8 347.12-21.53 346.53-22.27 345.36-22.27L345.36-22.27Q342.38-22.27 339.96-20.21 337.55-18.16 337.16-15.19ZM372.26-18.6L372.26-18.6 370.11-18.75Q369.09-21.48 366.65-21.48L366.65-21.48Q365.57-21.48 364.38-21 363.18-20.51 362.4-20 361.62-19.48 360.35-18.51L360.35-18.51Q360.35-17.82 360.32-14.06 360.3-10.3 360.37-5.71 360.45-1.12 360.54-0.78L360.54-0.78Q360.1 0.68 358.83 0.68L358.83 0.68Q357.96 0.68 357.15-0.02 356.34-0.73 356.15-1.76L356.15-1.76Q357.08-17.43 357.81-25.44L357.81-25.44 360.01-24.95 360.15-21.68Q363.57-24.51 366.01-24.51L366.01-24.51Q368.7-24.51 370.53-23.29 372.36-22.07 372.36-19.73L372.36-19.73Q372.36-18.99 372.26-18.6ZM377.83 14.45L377.83 14.45 374.8 12.74Q376.8 9.28 381.88-0.44L381.88-0.44Q377.92-3.96 375.82-11.08 373.72-18.21 373.28-25.34L373.28-25.34 376.12-25.2Q376.36-24.02 377.17-19.85 377.97-15.67 378.46-13.67 378.95-11.67 380.19-8.67 381.44-5.66 383.05-3.61L383.05-3.61Q389.84-16.65 389.84-25L389.84-25 389.84-25.54Q392.38-25.15 393.65-24.61L393.65-24.61Q392.86-19.48 391.2-14.16 389.54-8.84 387.05-3.44 384.56 1.95 382.64 5.62 380.71 9.28 377.83 14.45Z" opacity="1" transform="matrix(1,0,0,1,0,0)" fill="#000000" class="wordmark-text-0" data-fill-palette-color="primary" id="text-0"></path></svg></g></svg></g><g transform="matrix(1,0,0,1,0,63.077041486312645)"><svg viewBox="0 0 197.06101800157677 31.536581600598357" height="31.536581600598357" width="197.06101800157677"><g transform="matrix(1,0,0,1,0,0)"><svg width="197.06101800157677" viewBox="1.9 -36.5 231.18 37" height="31.536581600598357" data-palette-color="#fbeaab"><path d="M7.1-32.85Q6.1-32.85 5.55-32.7 5-32.55 4.55-32.25L4.55-32.25Q4.15-31.9 4-31.45 3.85-31 3.8-30.35L3.8-30.35 1.9-30.35Q2-32.5 3.3-33.7L3.3-33.7Q4.5-34.8 7.15-34.8L7.15-34.8 17.85-34.8Q20.7-34.8 22.95-33.7 25.2-32.6 26.48-30.6 27.75-28.6 27.75-26L27.75-26Q27.75-23.8 26.75-22.08 25.75-20.35 24.15-19.25L24.15-19.25Q23.15-18.55 21.2-18.3L21.2-18.3Q23-18.05 24.25-17.35L24.25-17.35Q26.7-16 28-13.98 29.3-11.95 29.3-9L29.3-9Q29.3-4.15 25.85-1.85 22.4 0.45 16.25 0.45L16.25 0.45Q11.35 0.45 9.3 0.2L9.3 0.2 7.1-0.05 7.1-32.85ZM16.45-1.5Q21.45-1.5 24.3-3.3 27.15-5.1 27.15-9.05L27.15-9.05Q27.15-11.55 25.93-13.4 24.7-15.25 22.65-16.25 20.6-17.25 18.15-17.25L18.15-17.25 13.7-17.25 13.7-19.2 17.8-19.2Q19.45-19.2 20.9-19.65 22.35-20.1 23.35-20.95L23.35-20.95Q25.55-22.85 25.55-26L25.55-26Q25.55-29.2 23.58-30.95 21.6-32.7 18.55-32.85L18.55-32.85 9.2-32.85 9.2-1.75 14.55-1.55 16.45-1.5ZM45.85-25.25Q46.55-25.25 48.45-24.9L48.45-24.9 48.45-23Q47-23.25 45.95-23.25L45.95-23.25Q43.1-23.25 41.35-21.85L41.35-21.85Q40.6-21.2 39.75-20.18 38.9-19.15 38.3-18L38.3-18 38.3-0.05 36.2-0.05 36.2-18.1Q36.2-20.3 35.75-21.58 35.3-22.85 34.35-24.05L34.35-24.05 35.75-25.4Q36.85-24.35 37.52-23.03 38.2-21.7 38.3-20.25L38.3-20.25Q38.95-21.55 39.85-22.6 40.75-23.65 41.65-24.2L41.65-24.2Q43.35-25.25 45.85-25.25L45.85-25.25ZM61.99 0.45Q56.45 0.45 53.59-2.83 50.74-6.1 50.74-11.45L50.74-11.45Q50.74-14.9 51.95-18.05 53.14-21.2 55.64-23.23 58.14-25.25 61.8-25.25L61.8-25.25Q65.59-25.25 68.14-23.2 70.69-21.15 70.69-17.75L70.69-17.75Q70.69-14.15 67.72-12.2 64.75-10.25 59.64-10.25L59.64-10.25 52.99-10.25Q53.39-6.05 55.7-3.75 57.99-1.45 61.99-1.45L61.99-1.45Q64.25-1.45 66.12-2.1 68-2.75 70-4L70-4 71.05-2.55Q66.8 0.45 61.99 0.45L61.99 0.45ZM59.64-12.15Q63.64-12.15 66.12-13.5 68.59-14.85 68.59-17.8L68.59-17.8Q68.59-20.5 66.59-21.93 64.59-23.35 61.95-23.35L61.95-23.35Q58.89-23.35 56.82-21.53 54.74-19.7 53.77-17.07 52.8-14.45 52.89-12.15L52.89-12.15 59.64-12.15ZM100.24-2.4L101.84-1.4Q101.34-0.55 100.47-0.1 99.59 0.35 98.64 0.35L98.64 0.35Q96.84 0.35 95.79-0.68 94.74-1.7 94.59-3.7L94.59-3.7Q93.54-1.8 91.39-0.68 89.24 0.45 86.54 0.45L86.54 0.45Q83.09 0.45 80.72-1.28 78.34-3 77.17-5.88 75.99-8.75 75.99-12.25L75.99-12.25Q75.99-16.15 77.44-19.07 78.89-22 81.62-23.63 84.34-25.25 88.09-25.25L88.09-25.25Q89.24-25.25 91.02-25.13 92.79-25 94.14-24.8L94.14-24.8 96.64-24.8 96.64-3.9Q96.64-2.7 97.19-2.13 97.74-1.55 98.64-1.55L98.64-1.55Q99.09-1.55 99.57-1.8 100.04-2.05 100.24-2.4L100.24-2.4ZM94.54-9.3L94.54-23Q93.74-22.95 90.94-23.15L90.94-23.15 87.89-23.25Q83.14-23.25 80.62-20.15 78.09-17.05 78.09-12.35L78.09-12.35Q78.09-9.55 79.07-7.08 80.04-4.6 81.97-3.08 83.89-1.55 86.59-1.55L86.59-1.55Q89.04-1.55 90.94-2.75 92.84-3.95 93.79-5.85L93.79-5.85Q94.54-7.35 94.54-9.3L94.54-9.3ZM112.29 0.45Q105.99 0.45 105.99-7L105.99-7 105.99-31.15 108.09-31.15 108.09-25 116.14-25 116.14-23 108.09-23 108.09-7Q108.09-4.35 109.06-2.9 110.04-1.45 112.29-1.45L112.29-1.45Q115.24-1.45 116.99-4.3L116.99-4.3 118.49-3.2Q117.34-1.35 115.89-0.45 114.44 0.45 112.29 0.45L112.29 0.45ZM142.79-3.8Q142.79-2.6 143.34-2 143.89-1.4 144.79-1.4L144.79-1.4Q145.64-1.4 146.29-2.2L146.29-2.2 147.84-1.1Q146.69 0.5 144.74 0.5L144.74 0.5Q142.94 0.5 141.81-0.68 140.69-1.85 140.69-3.85L140.69-3.85 140.69-17.4Q140.69-20.45 139.06-21.98 137.44-23.5 134.44-23.5L134.44-23.5Q131.74-23.5 129.81-22.15 127.89-20.8 125.89-18.05L125.89-18.05 125.89-0.2 123.79-0.2 123.79-36.5 125.89-36.5 125.89-20.05Q127.54-22.8 129.71-24.1 131.89-25.4 134.84-25.4L134.84-25.4Q138.89-25.4 140.84-23.45 142.79-21.5 142.79-17.55L142.79-17.55 142.79-3.8ZM167.83 0.45Q166.43 0.45 165.38-0.38 164.33-1.2 163.93-2.65L163.93-2.65 165.88-2.95Q166.08-2.4 166.63-1.98 167.18-1.55 167.88-1.55L167.88-1.55Q168.48-1.55 169.01-1.98 169.53-2.4 169.73-2.9L169.73-2.9 182.98-34.6 183.38-34.6 197.83-0.05 195.58-0.05 190.73-11.7 175.53-11.7 171.63-2.1Q171.13-0.85 170.13-0.2 169.13 0.45 167.83 0.45L167.83 0.45ZM176.38-13.7L189.83-13.7 184.08-28.1 183.13-31.25 182.18-28 176.38-13.7ZM213.23-25.25Q213.93-25.25 215.83-24.9L215.83-24.9 215.83-23Q214.38-23.25 213.33-23.25L213.33-23.25Q210.48-23.25 208.73-21.85L208.73-21.85Q207.98-21.2 207.13-20.18 206.28-19.15 205.68-18L205.68-18 205.68-0.05 203.58-0.05 203.58-18.1Q203.58-20.3 203.13-21.58 202.68-22.85 201.73-24.05L201.73-24.05 203.13-25.4Q204.23-24.35 204.91-23.03 205.58-21.7 205.68-20.25L205.68-20.25Q206.33-21.55 207.23-22.6 208.13-23.65 209.03-24.2L209.03-24.2Q210.73-25.25 213.23-25.25L213.23-25.25ZM226.88 0.45Q220.58 0.45 220.58-7L220.58-7 220.58-31.15 222.68-31.15 222.68-25 230.73-25 230.73-23 222.68-23 222.68-7Q222.68-4.35 223.65-2.9 224.63-1.45 226.88-1.45L226.88-1.45Q229.83-1.45 231.58-4.3L231.58-4.3 233.08-3.2Q231.93-1.35 230.48-0.45 229.03 0.45 226.88 0.45L226.88 0.45Z" opacity="1" transform="matrix(1,0,0,1,0,0)" fill="#000000" class="slogan-text-1" data-fill-palette-color="secondary" id="text-1"></path></svg></g></svg></g></svg></g></svg></g><g><svg viewBox="0 0 138.70805079080236 130.756027106111" height="130.756027106111" width="138.70805079080236"><g><svg xmlns="http://www.w3.org/2000/svg" xmlns:xlink="http://www.w3.org/1999/xlink" version="1.1" x="0" y="0" viewBox="7.00578894734441 6.6401923788646675 89.99774140591951 84.83824152722858" enable-background="new 0 0 100 100" xml:space="preserve" height="130.756027106111" width="138.70805079080236" class="icon-icon-0" data-fill-palette-color="accent" id="icon-0"><g fill="#fbeaab" data-fill-palette-color="accent"><g fill="#fbeaab" data-fill-palette-color="accent"><path fill="#000000" d="M60.3 73.2c-2.9-0.7-5.9 1.1-6.7 4l-0.1 0.3c-1.2 5.3-4.4 9.9-8.9 12.9 0.7 0.3 1.5 0.5 2.2 0.7 7.8 1.8 15.6-3 17.6-10.6l0.1-0.4C65.3 76.9 63.4 73.9 60.3 73.2z" data-fill-palette-color="accent"></path><path fill="#000000" d="M53.5 60.5c1.4-0.2 2.9-0.2 4.7 0l1.2 0.2 0.2-2.1 0-0.1c0 0 0-0.3 0.2-1l0.4-1.3L58.9 56c-1.3-0.2-2.5-0.3-3.6-0.3-2.4 0-4.6 0.4-6.7 1.3-6.1 2.6-7.8 9.3-9.3 15.1-0.5 1.8-0.9 3.6-1.5 5.1-1.6 4.3-5 6.7-9.3 6.7-1.1 0-2.3-0.2-3.5-0.5-5.2-1.4-8.8-6.1-11.1-9.6-4.3-8.7-1.1-18.5 2.6-27.8 3.8-9.7 8.3-19.6 17.4-25 6.9-4.1 16.5-4.4 28.2-0.8 5.4 1.6 10.1 3.8 13.9 6.5l1 0.7 2.4-4.1-0.9-0.6c-4.9-3.4-11-6.1-18.5-8-10.1-2.6-19.6-2.1-27.3 1.6C23.6 20.7 18.4 30 14.5 38.6 8.9 51 3.8 64.1 9.5 75.7c0.1 0.2 0.1 0.3 0.2 0.4 0.1 0.1 0.2 0.3 0.3 0.4 3.7 5.6 10 12.3 18.4 12.3 0.6 0 1.2 0 1.8-0.1C40 87.6 42.4 79 44.5 71.5l0.4-1.4C46.5 64.2 49.2 61.3 53.5 60.5z" data-fill-palette-color="accent"></path><path fill="#000000" d="M93.1 35.3c-1.2-1.9-2.7-3.7-4.5-5.5l-1.3-1.3-1.9 4.8L86 34c3.3 3.5 5.3 7.5 6.1 11.9 0.8 4.7-0.8 9.6-4.4 13.2-2.1 2.1-4.8 3.1-8.4 3.1-1.2 0-2.6-0.1-4-0.4l-0.9-0.2L74 62.5c-0.3 0.7-0.7 1.5-1 2.1L72.2 66l1.6 0.3c1.8 0.4 3.6 0.5 5.2 0.5 6 0 10.8-2.4 14.4-7.1C99.1 52.2 97.3 41.8 93.1 35.3z" data-fill-palette-color="accent"></path><path fill="#000000" d="M72.7 61.3l14.5-36.9 1.2-3.1 5.2-13.1c0.1-0.1 0-0.3-0.1-0.4L92 6.7c-0.2-0.1-0.4-0.1-0.5 0.2l-6.2 10.4-1.5 2.6L62.5 55.5c-0.3 0.5-0.8 1.5-1.1 2.4-0.2 0.7-0.4 1.3-0.5 1.8l-0.2 1-1.5 7.6c0 0 0 0 0 0.1-0.1 1 0.5 2.3 1.3 2.6l3.2 1.8c0.8 0.4 1.9 0.2 2.6-0.6 0 0 0 0 0-0.1l3.8-5.9c0.2-0.2 0.5-0.8 0.9-1.5 0.5-0.9 1-2 1.3-2.8C72.5 61.8 72.6 61.5 72.7 61.3z" data-fill-palette-color="accent"></path></g><circle fill="#000000" cx="25.1" cy="67.9" r="5.9" data-fill-palette-color="accent"></circle><circle fill="#000000" cx="30.9" cy="48.3" r="5.9" data-fill-palette-color="accent"></circle><circle fill="#000000" cx="42.3" cy="31.4" r="5.9" data-fill-palette-color="accent"></circle><circle fill="#000000" cx="61.4" cy="31.4" r="5.9" data-fill-palette-color="accent"></circle></g></svg></g></svg></g></svg></g><defs></defs></svg><rect width="395.52" height="94.67140447173962" fill="none" stroke="none" visibility="hidden"></rect></g></svg></g></svg>